<svg width="101" height="101" viewBox="0 0 101 101" fill="none" xmlns="http://www.w3.org/2000/svg">
<circle cx="50.5" cy="50.5" r="44.5" fill="url(#paint0_linear_1169_45)"/>
<circle cx="50.5" cy="50.5" r="49.5" stroke="url(#paint1_linear_1169_45)" stroke-width="2"/>
<path fill-rule="evenodd" clip-rule="evenodd" d="M40.5714 27.1484C39.5814 27.1484 38.7619 27.9632 38.7619 28.9476V29.7898C38.7619 30.7864 39.5935 31.589 40.4944 31.589H43.2639L43.2664 31.589H57.8192L57.8217 31.589H60.5141C61.4704 31.589 62.2549 30.8057 62.3236 29.7719V28.9476C62.3236 27.9632 61.5041 27.1484 60.5141 27.1484H40.5714ZM58.3967 32.7374H60.5141C62.1709 32.7374 63.3852 31.385 63.4776 29.8235C63.4782 29.8123 63.4786 29.801 63.4786 29.7898V28.9476C63.4786 27.3289 62.142 26 60.5141 26H40.5714C38.9435 26 37.607 27.3289 37.607 28.9476V29.7898C37.607 31.3962 38.9313 32.7374 40.4944 32.7374H42.6889V42.5755C42.6889 43.8465 42.3339 45.1266 41.6876 46.2708L34.6287 58.2381C34.5484 58.3142 34.4945 58.4089 34.4684 58.5099L30.9875 64.4112L30.9858 64.414C28.2302 69.1467 31.5642 75.0795 37.1108 74.9992H63.9021C69.3484 74.9992 72.7904 69.0856 70.0212 64.4113L70.0205 64.4102L66.7394 58.8276C67.6963 57.3683 68.2525 55.6255 68.2525 53.7535C68.2525 51.6616 67.558 49.731 66.3859 48.1772L68.1587 46.4284C68.3851 46.2051 68.3866 45.8415 68.1619 45.6164C67.9373 45.3912 67.5717 45.3898 67.3453 45.6131L65.6351 47.3001C63.9333 45.5439 61.5435 44.4513 58.8971 44.4513C58.8063 44.4513 58.7159 44.4526 58.6257 44.4551C58.4831 43.8718 58.3967 43.2728 58.3967 42.7286V32.7374ZM64.815 48.109C63.3226 46.5625 61.2229 45.5997 58.8971 45.5997C58.7548 45.5997 58.6134 45.6033 58.4729 45.6104C58.4406 45.6272 58.4063 45.6412 58.3701 45.652C58.2506 45.6877 58.1286 45.683 58.0188 45.6459C53.9029 46.0817 50.6967 49.5453 50.6967 53.7535C50.6967 58.2567 54.3682 61.9072 58.8971 61.9072C63.4261 61.9072 67.0975 58.2567 67.0975 53.7535C67.0975 51.9774 66.5264 50.334 65.5569 48.9949L58.4568 55.9986C58.2311 56.2213 57.8667 56.2206 57.6418 55.997L55.0238 53.3939C54.7983 53.1696 54.7983 52.8061 55.0238 52.5818C55.2493 52.3576 55.615 52.3576 55.8405 52.5818L58.0518 54.7805L64.815 48.109ZM58.8971 63.0557C61.7313 63.0557 64.2711 61.8025 65.9867 59.8231L69.0244 64.9914L69.0255 64.9932C71.337 68.8936 68.4652 73.8508 63.9021 73.8508H37.1065C37.1036 73.8508 37.1007 73.8508 37.0978 73.8508C32.4838 73.9204 29.6606 68.9846 31.9845 64.9909L31.9854 64.9894L35.5186 58.9993C38.9599 56.3106 41.6535 55.5445 43.9747 55.6761C46.3216 55.8092 48.3785 56.8585 50.5875 58.0313C52.145 61.0163 55.2815 63.0557 58.8971 63.0557ZM49.5418 53.7535C49.5418 54.6677 49.6744 55.5511 49.9216 56.3857C48.1037 55.4611 46.193 54.6516 44.0404 54.5296C41.9089 54.4087 39.5971 54.9606 36.9298 56.607L42.6866 46.8472C42.6883 46.8442 42.6901 46.8412 42.6918 46.8382C43.4299 45.5335 43.8439 44.0591 43.8439 42.5755V32.7374H57.2417V42.7286C57.2417 43.3259 57.3269 43.9556 57.4641 44.5597C52.9775 45.2454 49.5418 49.1005 49.5418 53.7535Z" fill="white"/>
<defs>
<linearGradient id="paint0_linear_1169_45" x1="50.5" y1="6" x2="50.5" y2="95" gradientUnits="userSpaceOnUse">
<stop stop-color="#D5D0CC"/>
<stop offset="1" stop-color="#887C75"/>
</linearGradient>
<linearGradient id="paint1_linear_1169_45" x1="101" y1="50.5" x2="-3.98986e-06" y2="45.2396" gradientUnits="userSpaceOnUse">
<stop stop-color="#BFB9B1"/>
<stop offset="1" stop-color="#AED9A9" stop-opacity="0"/>
</linearGradient>
</defs>
</svg>
