<svg width="101" height="101" viewBox="0 0 101 101" fill="none" xmlns="http://www.w3.org/2000/svg">
<circle cx="50.5" cy="50.5" r="44.5" fill="url(#paint0_linear_1169_46)"/>
<circle cx="50.5" cy="50.5" r="49.5" stroke="url(#paint1_linear_1169_46)" stroke-width="2"/>
<path d="M49.6165 62V45.53L42.5365 58.16H41.0065L33.8965 45.53V62H31.1965V40.7H34.0465L41.7565 54.53L49.4965 40.7H52.3165V62H49.6165ZM63.0028 62.18C61.9428 62.18 60.9628 61.96 60.0628 61.52C59.1828 61.08 58.4228 60.49 57.7828 59.75C57.1428 59.01 56.6428 58.16 56.2828 57.2C55.9428 56.24 55.7728 55.24 55.7728 54.2C55.7728 53.1 55.9428 52.06 56.2828 51.08C56.6428 50.08 57.1428 49.21 57.7828 48.47C58.4228 47.73 59.1828 47.15 60.0628 46.73C60.9628 46.29 61.9528 46.07 63.0328 46.07C64.3528 46.07 65.4928 46.39 66.4528 47.03C67.4128 47.67 68.2228 48.48 68.8828 49.46V46.34H71.2228V61.82C71.2228 62.94 71.0128 63.92 70.5928 64.76C70.1728 65.62 69.6028 66.34 68.8828 66.92C68.1628 67.5 67.3128 67.94 66.3328 68.24C65.3728 68.54 64.3428 68.69 63.2428 68.69C61.4628 68.69 60.0128 68.38 58.8928 67.76C57.7928 67.16 56.8728 66.32 56.1328 65.24L57.6628 63.89C58.2828 64.81 59.0828 65.5 60.0628 65.96C61.0428 66.42 62.1028 66.65 63.2428 66.65C63.9628 66.65 64.6428 66.55 65.2828 66.35C65.9428 66.15 66.5128 65.85 66.9928 65.45C67.4728 65.05 67.8528 64.55 68.1328 63.95C68.4328 63.35 68.5828 62.64 68.5828 61.82V59.06C68.2828 59.54 67.9228 59.98 67.5028 60.38C67.1028 60.76 66.6628 61.09 66.1828 61.37C65.7028 61.63 65.1928 61.83 64.6528 61.97C64.1128 62.11 63.5628 62.18 63.0028 62.18ZM63.8128 60.02C64.3728 60.02 64.9128 59.92 65.4328 59.72C65.9528 59.52 66.4328 59.26 66.8728 58.94C67.3128 58.6 67.6828 58.22 67.9828 57.8C68.2828 57.38 68.4828 56.95 68.5828 56.51V52.01C68.3628 51.47 68.0728 50.98 67.7128 50.54C67.3728 50.1 66.9828 49.72 66.5428 49.4C66.1028 49.06 65.6228 48.8 65.1028 48.62C64.6028 48.44 64.0928 48.35 63.5728 48.35C62.7728 48.35 62.0528 48.52 61.4128 48.86C60.7928 49.2 60.2628 49.65 59.8228 50.21C59.3828 50.77 59.0428 51.41 58.8028 52.13C58.5628 52.83 58.4428 53.54 58.4428 54.26C58.4428 55.04 58.5828 55.78 58.8628 56.48C59.1428 57.18 59.5228 57.79 60.0028 58.31C60.4828 58.83 61.0428 59.25 61.6828 59.57C62.3428 59.87 63.0528 60.02 63.8128 60.02Z" fill="white"/>
<defs>
<linearGradient id="paint0_linear_1169_46" x1="50.5" y1="6" x2="50.5" y2="95" gradientUnits="userSpaceOnUse">
<stop stop-color="#D5D0CC"/>
<stop offset="1" stop-color="#887C75"/>
</linearGradient>
<linearGradient id="paint1_linear_1169_46" x1="101" y1="50.5" x2="-3.98986e-06" y2="45.2396" gradientUnits="userSpaceOnUse">
<stop stop-color="#BFB9B1"/>
<stop offset="1" stop-color="#AED9A9" stop-opacity="0"/>
</linearGradient>
</defs>
</svg>
